<svg id="Layer_2" data-name="Layer 2" xmlns="http://www.w3.org/2000/svg" viewBox="0 0 566.34 530.9">
    <defs>
        <style>
            .cls-1{fill:#fad851;}.cls-1,.cls-3,.cls-4,.cls-5,.cls-7,.cls-8{stroke:#231f20;}.cls-1,.cls-10,.cls-2,.cls-3,.cls-4,.cls-5,.cls-7,.cls-8{stroke-miterlimit:10;}.cls-2,.cls-9{fill:#1d184c;}.cls-2{stroke:#1d184c;}.cls-10,.cls-3,.cls-6{fill:#fff;}.cls-4{fill:#fad852;}.cls-5{fill:none;}.cls-7{fill:#be2c37;}.cls-8{fill:#00539b;}.cls-10{font-size:27.22px;stroke:#000;stroke-width:0.75px;font-family:TimesNewRomanPSMT,
            Times New Roman;}
        </style>
    </defs>
    <title>Logo</title>
    <path class="cls-1" d="M439.59,433.29h-87.3c0-11,19.55-19.94,43.65-19.94S439.59,422.28,439.59,433.29Z"
          transform="translate(-119.75 -30.48)"/>
    <path class="cls-2"
          d="M441.15,434.85a1.56,1.56,0,0,1-1.56,1.56h-87.3a1.56,1.56,0,1,1,0-3.12h87.3A1.56,1.56,0,0,1,441.15,434.85Z"
          transform="translate(-119.75 -30.48)"/>
    <path class="cls-3" d="M354.85,439.82" transform="translate(-119.75 -30.48)"/>
    <path class="cls-3" d="M360,439.82" transform="translate(-119.75 -30.48)"/>
    <path class="cls-3" d="M367.82,455.71" transform="translate(-119.75 -30.48)"/>
    <path class="cls-4"
          d="M559.82,479.47c-2.51,11.61-11.05,18.11-14.47,20.71a43.59,43.59,0,0,1-21.06,8.47c-13.6,1.62-23.94-3.75-28.58-6.24a54.29,54.29,0,0,1-11.89-8.65c0,1.19-.23,3.31-1.64,4.3-2.85,2-9.9-1-10.59-5.77-.44-3,1.78-6,4.23-7.29,4.11-2.11,10.42-.11,14.71,5.65a11.1,11.1,0,0,1,2.82-12.24c3.23-2.8,8.78-4,12.12-1.06,4.34,3.76,2.54,12.25-.35,13.41-1.81.73-5.07-1-6.12-3.64a5.61,5.61,0,0,1-.24-3.18l0,0a8.52,8.52,0,0,0,2.67,13.75,36.22,36.22,0,0,0,16.24,2.82c1.53-.1,23.06-1.82,29.29-19.06,4.81-13.31-3.34-25.25-3.7-25.76a28.2,28.2,0,0,0-11.62-9.43c-13.22-5.72-26.56,1.1-28.62,2.19-9.56,5.08-14,11.42-22.94,23.65-4,5.48-4.13,5.78-9.2,12.59-7.56,10.15-15,20.15-22.74,27.47-6.31,6-17.1,14.23-34.53,19.92v13.84a29.49,29.49,0,0,0,24.47,14.94H354.94a38.52,38.52,0,0,0,24.54-14.94l0-13.84c-38.46-6.46-64.47-39.85-67.46-43.69-12.19-15.64-26.59-35.76-26.59-35.76-7.19-10-7.5-10.82-10-13.65-14.18-15.9-31.52-22.27-39.66-25.16a111.46,111.46,0,0,0-52.9-5.08,50.43,50.43,0,0,0,9.71-4.65c2.2-1.36,3.27-2.27,3.7-3.7.76-2.49-.89-4.94-1.41-5.65a91.94,91.94,0,0,1,36,.06c.12,0,1.25.23,2.5.53,6.33,1.5,18,5.68,47.15,22.94,14.85,8.8,23.08,14.82,39.4,21.78,9.42,4,16.67,6.3,22,6.33a10.84,10.84,0,0,0,7.53-2.4h0a12,12,0,0,0,3.52-7.58h85.88c.63,3.59,2.09,8.17,5.88,10.94,6.37,4.65,15.4,1.35,28.5-2.88,25.07-8.09,37.61-12.14,44.91-11.73,14.81.81,30.06,8.47,36.59,19.55a46.21,46.21,0,0,1,5.06,14A31.65,31.65,0,0,1,559.82,479.47Z"
          transform="translate(-119.75 -30.48)"/>
    <path class="cls-5" d="M480.06,472.12" transform="translate(-119.75 -30.48)"/>
    <path class="cls-5" d="M198.94,394.82" transform="translate(-119.75 -30.48)"/>
    <path class="cls-5" d="M402.76,533.94" transform="translate(-119.75 -30.48)"/>
    <line class="cls-5" x1="259.77" y1="501.62" x2="293.84" y2="501.62"/>
    <line class="cls-5" x1="259.73" y1="515.46" x2="293.84" y2="515.46"/>
    <circle class="cls-2" cx="276.75" cy="372.29" r="10.59"/>
    <polygon class="cls-6"
             points="276.75 362.54 279.61 368.35 286.02 369.28 281.38 373.8 282.48 380.18 276.75 377.16 271.02 380.18 272.11 373.8 267.47 369.28 273.88 368.35 276.75 362.54"/>
    <path class="cls-7"
          d="M293.44,195.32c-15,17.79-33.34,10.11-57.26,29.74-5.61,4.59-11.54,9.58-15.65,18.18-7.36,15.42-.47,25-1.38,41.38-1.78,32.13-30.55,37.81-36.89,73.06-1.8,10-1.92,23.16,3.45,39.44-6.56-4.8-15.8-12.94-22-25.46-18.11-36.74,5.46-80,14-103.25,14.09-38.66,13.38-101.48-54.94-206.59a108.6,108.6,0,0,0,19.6,15.6,83.28,83.28,0,0,0,9.53,5.18,76.19,76.19,0,0,0,19.81,6c1.66.26,2.91.4,3.64.49,31.18,3.67,38-16,69.77-15.06,16.73.48,26.67,6.29,35.41-.71,5.61-4.49,7.45-11.64,8.12-17.06,6.71,26.88,1.58,39-4,45.2-13.18,14.41-35.05,2.3-52.79,18.57-13.13,12-18.57,34.66-10.35,44.82,1.61,2,5.43,5.6,19.18,6.71,10.6.85,31.45.56,57.17-13.53-1.71,7-3,14.27-.82,15.29,1.95.93,5.44-3.89,6.59-3.17C305.3,171.25,302.18,185,293.44,195.32Z"
          transform="translate(-119.75 -30.48)"/>
    <path class="cls-8"
          d="M389,132.41c1.72-3.4,9.89-20.49,3.29-40.94-.36-1.14-9-26.49-31.22-33.36C344.62,53,336.75,63,317.47,59.94,302,57.48,290.31,48.38,282.65,40.65a175.69,175.69,0,0,1,41.88,171.76c9-1.06,41-5.85,59.76-30.12,4.18-5.41,11.06-14.32,11.3-27.29A41.33,41.33,0,0,0,389,132.41ZM328.65,86.53c-3.61-5.24-10.28-13.7-8.41-15.79,1.09-1.22,4.07.83,10.17,2,9.11,1.79,12.45-.83,19.06,0,9.66,1.23,16.23,8.58,18.35,10.95,10.37,11.58,15.6,34.18,4.24,43.76-9.57,8.07-25.54,2.37-27.18,1.77C341.61,108.9,334.75,95.39,328.65,86.53Zm9.53,111.18a70.9,70.9,0,0,0,8.47-55.77,55.31,55.31,0,0,0,12,2.47c9.2.85,12.91-1.16,17.29,1.06,5.75,2.92,7.82,10.67,8.12,14.12C385.19,172.6,366.46,187.82,338.18,197.71Z"
          transform="translate(-119.75 -30.48)"/>
    <path class="cls-5"
          d="M344.88,129.24c-3.27-20.34-10.13-33.85-16.23-42.71-3.61-5.24-10.28-13.7-8.41-15.79,1.09-1.22,4.07.83,10.17,2,9.11,1.79,12.45-.83,19.06,0,9.66,1.23,16.23,8.58,18.35,10.95,10.37,11.58,15.6,34.18,4.24,43.76C362.49,135.54,346.52,129.84,344.88,129.24Z"
          transform="translate(-119.75 -30.48)"/>
    <path class="cls-5"
          d="M338.18,197.71a70.9,70.9,0,0,0,8.47-55.77,55.31,55.31,0,0,0,12,2.47c9.2.85,12.91-1.16,17.29,1.06,5.75,2.92,7.82,10.67,8.12,14.12C385.19,172.6,366.46,187.82,338.18,197.71Z"
          transform="translate(-119.75 -30.48)"/>
    <path class="cls-7"
          d="M410.07,110.81c7.72,36.92-6.94,76.15-37.54,102.59H495.72C474.84,210.77,465,203,460,196.46c-9.23-11.91-7.79-26.19-16.28-29-6.22-2.08-13.62,3.38-18.54,7.84,1.88-5.18,17.49-50.6-9.55-90.24-15-22-35.78-31.42-45-34.93C378.27,55.94,402.79,76,410.07,110.81Z"
          transform="translate(-119.75 -30.48)"/>
    <path class="cls-8"
          d="M636.53,191.24A120.85,120.85,0,0,1,623,179.33c-9.89-10.3-20.94-26.28-38.86-100.05-1.42-5.86-2.52-10.58-3.13-13.22,8.28-29,9.37-34.69,8.94-34.82-.71-.23-3.33,15.14-14.12,20.23a37.26,37.26,0,0,1-15.3,2.82c-6.84-.25-9.62-2.58-12.15-2.51-25.57.73-27.94,95.37-73.72,113.1a46.1,46.1,0,0,1-19.77,2.83,36.12,36.12,0,0,0,4.24,16.94,36.73,36.73,0,0,0,15.53,15.06,40.92,40.92,0,0,0,24.94,4.23q13.65-33.88,27.29-67.76c8.27,9.3,15.06,11.18,19.66,11.25,11.53.17,20.18-10.91,28.81-7a11.41,11.41,0,0,1,4.47,3.77l23.3,61.64,82.82,11.77A162.69,162.69,0,0,1,636.53,191.24Zm-62.85-65.62c-14.51-.29-20.24,11-30,9.53-6.82-1.07-12.52-8-14.12-14.12-2-7.67,3.47-10,11-29.29,5.1-13.14,6.26-21.58,11.64-22.59,3.35-.63,5,2.23,9.39,1.85,5.33-.46,12.71-7.64,15.22-11.65-1.17,4.71-5.78,11.8-7,16.51,4,17,8,37.87,12,54.9C580,130.21,577.2,125.69,573.68,125.62Z"
          transform="translate(-119.75 -30.48)"/>
    <path class="cls-5"
          d="M581.79,130.76c-1.75-.55-4.59-5.07-8.11-5.14-14.51-.29-20.24,11-30,9.53-6.82-1.07-12.52-8-14.12-14.12-2-7.67,3.47-10,11-29.29,5.1-13.14,6.26-21.58,11.64-22.59,3.35-.63,5,2.23,9.39,1.85,5.33-.46,12.71-7.64,15.22-11.65-1.17,4.71-5.78,11.8-7,16.51C573.8,92.89,577.79,113.73,581.79,130.76Z"
          transform="translate(-119.75 -30.48)"/>
    <path class="cls-8"
          d="M318.88,241.12c-4.1,10.24-11.4,23.27-24.94,30.59-16.91,9.13-30.9,2.5-39.53,12.7-7.55,8.93.43,17.23-2.82,37.18-5.09,31.19-29.88,43.27-24,55.06,2.7,5.42,8.45,3.46,26.82,9.88,29,10.15,34.84,20.45,45.65,18.35,8.61-1.67,19-10.94,27.29-43.76-.87.34-15.43,5.83-26.35-2.83a23.73,23.73,0,0,1-7.53-10.82c-4.17,15.8-2.51,21,0,22.59,3.16,2.05,7.82-1.4,10.12.94,2.48,2.53.87,10.43-3.53,13.65-7.85,5.74-27.48-1.26-35.77-14.59-6.34-10.21-4.22-21.4,0-43.77,3.36-17.75,5-26.63,10.83-32.94,13.68-14.91,32.71-7,42.35-20.23C321.29,267.88,324.14,258.64,318.88,241.12Z"
          transform="translate(-119.75 -30.48)"/>
    <path class="cls-7"
          d="M413.94,239.24a53.43,53.43,0,0,1-66.35,4,44.78,44.78,0,0,0-9.88,13.41c-9.82,20.68,4.37,34.57,3.76,66.35-.21,10.92-3.5,24.14-10.07,50.59s-11.08,36.59-6.87,39.76c6.16,4.65,18.15-15.32,48.32-22.28,16.16-3.73,28.45-1.63,32.92-9.72,2.89-5.22,1-11.91-1.24-16.94a35.09,35.09,0,0,1-17.41,12.24c-9.16,2.74-23.77,2.67-29.18-5.65-6.08-9.35,1.65-25.77,11.3-34.35,11.14-9.92,22.22-7,26.7-15.53,3.89-7.4-.32-17.45-5.06-25.41-.21,1.05-1.77,8.22-8.47,11.76-8.36,4.42-16.8-1-17.41-1.41-7.13-4.76-10.22-14.93-7.06-24.94a70.28,70.28,0,0,0,37.65-16.47A69.36,69.36,0,0,0,413.94,239.24Z"
          transform="translate(-119.75 -30.48)"/>
    <path class="cls-8"
          d="M411.59,380.88a207.42,207.42,0,0,0,3.76-45.17c-.48-18-1-31.21-9.41-44.71a60.84,60.84,0,0,0-14.59-16,38.61,38.61,0,0,0,16.94-11.76,53.45,53.45,0,0,0,5.77-9.33c3.17-6,3.88-9.38,4.12-10.67.47-2.55.49-4.6.56-4.59s-.07,4.91-.53,10.41c-.38,4.36-.76,7-.85,7.9-.89,8.78,9.28,18,14.93,24.16,15.89,17.26,18.18,34.1,20.24,33.41s-.16-15.69-17.21-76.94a66.7,66.7,0,0,0,27,29.47,92.9,92.9,0,0,0-1.79,21.12c.92,29.66,16,43.09,14.23,72-.35,5.72-1.39,12.62-6.26,18.79-4.56,5.78-13.74,12.54-18.79,9.94-8.21-4.22,4.92-28.27-4.95-55.53a78.47,78.47,0,0,0-16.7-26.82,109.35,109.35,0,0,1,5.18,56,106.4,106.4,0,0,1-9.89,29.65,10.59,10.59,0,0,0-1.88-7.06C418.05,380.4,411.93,380.85,411.59,380.88Z"
          transform="translate(-119.75 -30.48)"/>
    <path class="cls-7"
          d="M444.15,235.29c4.2,6,10.2,12.12,18.26,13.36,6.44,1,8.19-2,16.94-1.89,9,.17,11.8,3.11,17.6,4.26a32.53,32.53,0,0,0,5.46.45c9.83-.1,23.36-9.76,22.35-18.35a9.84,9.84,0,0,0-5.64-7.53c-4.71-2.12-9.38.63-9.88.94,1.16-1.27,4.73-4.8,9.9-5,7.07-.31,14.43,5.69,14.8,11.38.59,9-16.71,10.83-24.94,28.94-2,4.37-2.74,8.14-3.95,14.18a106.86,106.86,0,0,0-1.87,26.26c1.42,39.49-10.32,57,.64,72.5,4.5,6.34,12.23,13.82,11.3,13.18A36.89,36.89,0,0,0,500.53,382a29.21,29.21,0,0,0-11.62-.07c-7.35,1.57-9.4,5.43-16.73,6.38a23.87,23.87,0,0,1-7.47-.22,35.3,35.3,0,0,0,10.5-9.8c10.8-15.58,5.49-37.33,1.38-54.17-3.9-16-7.36-19.33-8.53-33.39a96.18,96.18,0,0,1,1.09-24.34,63.57,63.57,0,0,1-25-31.13Z"
          transform="translate(-119.75 -30.48)"/>
    <path class="cls-8"
          d="M542.88,231a25.4,25.4,0,0,0-6.12-6.35c4.32,6,4.37,10,3.77,12.47-1.28,5.22-6.2,6.13-16.53,15.12-5.61,4.87-8.64,7.55-11,11.7-4.05,7.14-3.19,14-2.81,21.66a248.6,248.6,0,0,1-3.78,52c-2.52,13.41-5,16.93-2.82,24.23,3.7,12.7,16,19.06,17.41,19.77,11.74,5.85,23.66,3.14,47.11-3.67,6.18-1.8,11.37-3.61,16.86-7.71a44.18,44.18,0,0,0,10.26-10.86c-6.38,4.19-15.9,8.86-26,6.62-5.08-1.13-5.9-3-11.91-4.94-14.86-4.69-23,3.62-28.67-.88-7-5.57-4.58-25.9,5.5-32.44,3.11-2,5.17-1.57,20.53-2.15,21.71-.82,24.15-2,25.11-3.74,2.63-4.76-5.39-14.29-12.23-21.17,3.45,9.85,1.51,12.69.47,13.64-2.51,2.28-5.74-1.05-25.65-8-4.5-1.57-11.64-4.11-15.86-10.67a12,12,0,0,1-.61-1.09c-3.67-7.26.82-16.49,2.47-19.88a27.39,27.39,0,0,1,4.64-6.93c3.19-3.39,6-7.33,10.24-8.71,7.4-2.42,13,4.19,15.12,2.11C561.39,258.17,551.44,243.56,542.88,231Z"
          transform="translate(-119.75 -30.48)"/>
    <path class="cls-5" d="M332.53,37.82" transform="translate(-119.75 -30.48)"/>
    <path class="cls-5" d="M572.53,173.35" transform="translate(-119.75 -30.48)"/>
    <path class="cls-5" d="M629.94,245.82" transform="translate(-119.75 -30.48)"/>
    <path class="cls-5" d="M645,56.18" transform="translate(-119.75 -30.48)"/>
    <path class="cls-5" d="M666.18,64.65" transform="translate(-119.75 -30.48)"/>
    <path class="cls-5" d="M297.71,301.35" transform="translate(-119.75 -30.48)"/>
    <path class="cls-5" d="M497.24,405.82" transform="translate(-119.75 -30.48)"/>
    <path class="cls-5" d="M426.65,260.41" transform="translate(-119.75 -30.48)"/>
    <path class="cls-5" d="M460.06,335.24" transform="translate(-119.75 -30.48)"/>
    <path class="cls-5" d="M481.71,404.88" transform="translate(-119.75 -30.48)"/>
    <path class="cls-5" d="M438.41,397.82" transform="translate(-119.75 -30.48)"/>
    <path class="cls-5" d="M634.18,344.65" transform="translate(-119.75 -30.48)"/>
    <path class="cls-5" d="M471.59,388.82" transform="translate(-119.75 -30.48)"/>
    <path class="cls-5" d="M571.74,365.79" transform="translate(-119.75 -30.48)"/>
    <path class="cls-5" d="M681,308.65" transform="translate(-119.75 -30.48)"/>
    <path class="cls-5" d="M576.76,267.94" transform="translate(-119.75 -30.48)"/>
    <path class="cls-5" d="M606.65,333.82" transform="translate(-119.75 -30.48)"/>
    <path class="cls-5" d="M422.62,256.74" transform="translate(-119.75 -30.48)"/>
    <path class="cls-5" d="M423.76,255.15" transform="translate(-119.75 -30.48)"/>
    <path class="cls-5" d="M722.88,296.88" transform="translate(-119.75 -30.48)"/>
    <path class="cls-5" d="M346.65,243.24" transform="translate(-119.75 -30.48)"/>
    <path class="cls-5" d="M303.59,170.88" transform="translate(-119.75 -30.48)"/>
    <path class="cls-5"
          d="M372.06,127.47c-9.57,8.07-25.54,2.37-27.18,1.77-3.27-20.34-10.13-33.85-16.23-42.71-3.61-5.24-10.28-13.7-8.41-15.79,1.09-1.22,4.07.83,10.17,2,9.11,1.79,12.45-.83,19.06,0,9.66,1.23,16.23,8.58,18.35,10.95C378.19,95.29,383.42,117.89,372.06,127.47Z"
          transform="translate(-119.75 -30.48)"/>
    <path class="cls-5"
          d="M338.18,197.71a70.9,70.9,0,0,0,8.47-55.77,55.31,55.31,0,0,0,12,2.47c9.2.85,12.91-1.16,17.29,1.06,5.75,2.92,7.82,10.67,8.12,14.12C385.19,172.6,366.46,187.82,338.18,197.71Z"
          transform="translate(-119.75 -30.48)"/>
    <path class="cls-5"
          d="M581.79,130.76c-1.75-.55-4.59-5.07-8.11-5.14-14.51-.29-20.24,11-30,9.53-6.82-1.07-12.52-8-14.12-14.12-2-7.67,3.47-10,11-29.29,5.1-13.14,6.26-21.58,11.64-22.59,3.35-.63,5,2.23,9.39,1.85,5.33-.46,12.71-7.64,15.22-11.65-1.17,4.71-5.78,11.8-7,16.51C573.8,92.89,577.79,113.73,581.79,130.76Z"
          transform="translate(-119.75 -30.48)"/>
    <path class="cls-5" d="M650.88,67.47" transform="translate(-119.75 -30.48)"/>
    <path class="cls-5" d="M483.59,394.53" transform="translate(-119.75 -30.48)"/>
    <path class="cls-5" d="M562.41,254.29" transform="translate(-119.75 -30.48)"/>
    <path class="cls-5" d="M572.29,336.65" transform="translate(-119.75 -30.48)"/>
    <path class="cls-5" d="M564.76,276.18" transform="translate(-119.75 -30.48)"/>
    <path class="cls-5" d="M190.88,164.65" transform="translate(-119.75 -30.48)"/>
    <path class="cls-5" d="M176.06,376.18" transform="translate(-119.75 -30.48)"/>
    <path class="cls-5" d="M185.71,397.12" transform="translate(-119.75 -30.48)"/>
    <polygon class="cls-5"
             points="112.54 117.23 109.15 119.95 110.69 124.02 107.05 121.63 103.65 124.35 104.8 120.16 101.17 117.77 105.51 117.56 106.66 113.37 108.2 117.44 112.54 117.23"/>
    <polygon class="cls-5"
             points="138.89 111.47 131.25 117.27 134.42 126.33 126.53 120.86 118.89 126.67 121.66 117.48 113.78 112.01 123.37 111.8 126.14 102.61 129.3 111.67 138.89 111.47"/>
    <polygon class="cls-5"
             points="177.48 101.28 164.15 111.14 169.42 126.87 155.91 117.24 142.58 127.11 147.57 111.29 134.06 101.67 150.65 101.52 155.63 85.7 160.9 101.42 177.48 101.28"/>
    <polygon class="cls-6"
             points="296.07 473.23 276.71 459.08 257.27 473.12 264.75 450.33 245.39 436.18 269.37 436.25 276.84 413.47 284.19 436.29 308.17 436.36 288.73 450.4 296.07 473.23"/>
    <polygon class="cls-6"
             points="83.6 374.68 81.23 372.91 78.81 374.62 79.76 371.82 77.39 370.05 80.35 370.09 81.3 367.29 82.18 370.11 85.13 370.15 82.72 371.86 83.6 374.68"/>
    <polygon class="cls-6"
             points="95.83 371.36 91.89 370.29 89.67 373.71 89.46 369.64 85.52 368.57 89.33 367.12 89.13 363.04 91.69 366.22 95.5 364.76 93.27 368.18 95.83 371.36"/>
    <polygon class="cls-6"
             points="104.07 375.35 107.61 371.86 105.39 367.42 109.8 369.71 113.34 366.22 112.53 371.12 116.94 373.41 112.02 374.15 111.21 379.05 108.98 374.61 104.07 375.35"/>
    <polygon class="cls-6"
             points="127.6 383.11 124.9 380.89 121.95 382.77 123.23 379.51 120.53 377.29 124.02 377.5 125.3 374.25 126.18 377.63 129.67 377.85 126.72 379.73 127.6 383.11"/>
    <polygon class="cls-6"
             points="151.13 388.76 147.08 388.46 145.54 392.22 144.57 388.27 140.52 387.97 143.98 385.83 143.01 381.89 146.11 384.51 149.57 382.37 148.03 386.13 151.13 388.76"/>
    <polygon class="cls-6"
             points="170.71 403.46 165.97 402.78 163.51 406.9 163.03 402.35 158.29 401.67 162.74 399.55 162.25 395 165.49 398.23 169.93 396.11 167.48 400.23 170.71 403.46"/>
    <polygon class="cls-6"
             points="207.6 436.05 197.25 431.87 190.07 440.41 190.86 429.28 180.51 425.09 191.34 422.4 192.13 411.26 198.04 420.73 208.87 418.04 201.69 426.58 207.6 436.05"/>
    <polygon class="cls-6"
             points="243.37 427.35 243.89 421.78 238.76 419.56 244.22 418.35 244.75 412.78 247.59 417.59 253.05 416.38 249.35 420.57 252.19 425.38 247.06 423.16 243.37 427.35"/>
    <polygon class="cls-6"
             points="305.01 425.23 307.95 422.66 306.41 419.07 309.77 421.07 312.71 418.5 311.84 422.3 315.19 424.3 311.31 424.66 310.44 428.47 308.9 424.88 305.01 425.23"/>
    <polygon class="cls-6"
             points="306.42 465.23 302.83 461.37 298.04 463.59 300.61 458.98 297.02 455.11 302.2 456.13 304.76 451.51 305.4 456.75 310.58 457.77 305.79 459.99 306.42 465.23"/>
    <polygon class="cls-6"
             points="238.76 461.94 227.25 458.85 220.76 468.84 220.14 456.94 208.63 453.85 219.76 449.58 219.14 437.68 226.64 446.94 237.76 442.68 231.27 452.67 238.76 461.94"/>
    <polygon class="cls-9"
             points="283.01 525 276.16 519.94 269.23 524.9 271.92 516.82 265.06 511.76 273.58 511.82 276.27 503.74 278.84 511.86 287.36 511.92 280.44 516.88 283.01 525"/>
    <polygon class="cls-6"
             points="278.17 482.67 274.93 481.54 272.03 483.4 272.25 480.17 269.5 478.22 272.88 477.36 274.08 474.3 275.95 477 279.44 477.06 277.21 479.58 278.17 482.67"/>
    <polygon class="cls-6"
             points="305.01 484.35 302.26 485.05 301.29 487.71 299.77 485.31 296.94 485.21 298.75 483.02 297.98 480.3 300.61 481.34 302.96 479.77 302.78 482.6 305.01 484.35"/>
    <polygon class="cls-6"
             points="316.54 443.35 313.04 440.02 308.31 441.02 310.39 436.67 307.98 432.48 312.77 433.11 316 429.53 316.88 434.27 321.29 436.24 317.05 438.55 316.54 443.35"/>
    <polygon class="cls-6"
             points="336.13 443.35 332.45 443.24 331.21 446.7 330.18 443.17 326.51 443.06 329.55 440.99 328.51 437.46 331.42 439.71 334.46 437.64 333.22 441.1 336.13 443.35"/>
    <polygon class="cls-6"
             points="329.42 466.17 323.92 464.99 321.1 469.87 320.52 464.27 315.01 463.09 320.16 460.81 319.57 455.21 323.34 459.39 328.48 457.11 325.66 461.98 329.42 466.17"/>
    <polygon class="cls-6"
             points="314.64 473.23 312.22 472.52 310.81 474.61 310.73 472.09 308.31 471.38 310.68 470.54 310.61 468.02 312.15 470.01 314.52 469.16 313.1 471.24 314.64 473.23"/>
    <polygon class="cls-6"
             points="354.13 430.35 348.36 428.78 345.08 433.78 344.8 427.81 339.03 426.23 344.62 424.12 344.33 418.14 348.07 422.81 353.66 420.69 350.39 425.69 354.13 430.35"/>
    <polygon class="cls-6"
             points="376.25 418.86 371.07 420.59 371.03 426.05 367.87 421.66 362.69 423.39 365.92 418.95 362.77 414.56 367.92 416.2 371.15 411.76 371.1 417.22 376.25 418.86"/>
    <polygon class="cls-6"
             points="394.13 412.77 390.5 411.68 388.22 414.7 388.26 411 384.63 409.91 388.28 408.72 388.32 405.02 390.54 407.98 394.19 406.78 391.91 409.81 394.13 412.77"/>
    <polygon class="cls-6"
             points="422.52 416.18 419.7 415.37 418.09 417.82 417.96 414.86 415.14 414.05 417.88 413.03 417.75 410.08 419.57 412.41 422.31 411.39 420.7 413.85 422.52 416.18"/>
    <polygon class="cls-6"
             points="378.06 468.15 375.85 467.95 374.97 469.99 374.49 467.83 372.28 467.63 374.19 466.5 373.71 464.34 375.37 465.8 377.29 464.67 376.4 466.7 378.06 468.15"/>
    <polygon class="cls-6"
             points="436.3 443.09 433.76 440.82 430.84 442.55 432.2 439.42 429.67 437.14 433.04 437.48 434.4 434.34 435.13 437.68 438.5 438.02 435.57 439.75 436.3 443.09"/>
    <polygon class="cls-6"
             points="426.96 465.93 425.21 463.81 422.78 465.09 424.13 462.5 422.38 460.38 424.97 460.9 426.32 458.31 426.56 461.22 429.15 461.74 426.72 463.02 426.96 465.93"/>
    <polygon class="cls-6"
             points="392.25 475.52 390.51 474.33 388.85 475.62 389.44 473.6 387.71 472.41 389.81 472.35 390.4 470.34 391.11 472.32 393.21 472.26 391.54 473.54 392.25 475.52"/>
    <polygon class="cls-6"
             points="360.68 462.54 358.32 461.08 356.21 462.88 356.87 460.19 354.51 458.73 357.27 458.52 357.92 455.83 358.98 458.39 361.74 458.18 359.63 459.97 360.68 462.54"/>
    <polygon class="cls-6"
             points="383.78 451.51 381.63 451.55 381 453.6 380.3 451.56 378.16 451.6 379.87 450.31 379.18 448.28 380.94 449.51 382.65 448.23 382.02 450.28 383.78 451.51"/>
    <polygon class="cls-6"
             points="251.94 468.02 247.7 464.08 242.64 466.89 245.08 461.64 240.84 457.7 246.59 458.39 249.03 453.14 250.14 458.82 255.89 459.52 250.83 462.34 251.94 468.02"/>
    <polygon class="cls-6"
             points="246.91 487.78 241.49 485.49 237.64 489.94 238.14 484.08 232.72 481.8 238.45 480.46 238.95 474.61 241.99 479.64 247.71 478.3 243.87 482.75 246.91 487.78"/>
    <text class="cls-10" transform="translate(477.83 23) scale(1.08 1)">TM</text>
    <text x="-119.75" y="-30.48"/>
</svg>